<svg width="81" height="94" viewBox="0 0 81 94" fill="none" xmlns="http://www.w3.org/2000/svg">
<path d="M34.3396 24.7045C36.0653 18.6577 44.6348 18.6577 46.3605 24.7045C47.5824 28.9861 51.9812 31.5258 56.3001 30.4432C62.3996 28.9143 66.6844 36.3357 62.3105 40.8536C59.2135 44.0526 59.2135 49.1319 62.3105 52.3309C66.6844 56.8487 62.3996 64.2701 56.3001 62.7412C51.9812 61.6586 47.5824 64.1983 46.3605 68.4799C44.6348 74.5267 36.0653 74.5267 34.3396 68.4799C33.1177 64.1983 28.7189 61.6586 24.4 62.7412C18.3005 64.2701 14.0157 56.8487 18.3896 52.3309C21.4866 49.1319 21.4866 44.0526 18.3896 40.8536C14.0157 36.3357 18.3005 28.9143 24.4 30.4432C28.7189 31.5258 33.1177 28.9861 34.3396 24.7045Z" fill="#FB923C" stroke="#FDE68A" stroke-width="2"/>
<g clip-path="url(#clip0_5_172)">
<path d="M45.6842 40.7552C43.2074 40.7552 41.2266 42.7702 41.2266 45.2471V45.4989C41.2266 46.0774 40.7869 46.6117 40.2084 46.6117H38.2905C38.684 45.864 38.9073 44.992 38.9073 44.0951C38.9073 41.16 36.5194 38.7562 33.5843 38.7562C30.6492 38.7562 28.2613 41.1361 28.2613 44.0713C28.2613 44.855 28.8966 45.4863 29.6804 45.4863C30.4642 45.4863 31.0996 44.849 31.0996 44.0653C31.0996 42.6951 32.2143 41.5795 33.5843 41.5795C34.9544 41.5795 36.0692 42.6936 36.0692 44.0638C36.0692 45.434 34.9545 46.5484 33.5843 46.5484C32.8006 46.5484 32.1652 47.1836 32.1652 47.9673C32.1652 48.751 32.8005 49.3863 33.5843 49.3863C35.1767 49.3863 36.4722 50.6817 36.4722 52.2741C36.4722 53.8664 35.1767 55.1618 33.5843 55.1618C31.9919 55.1618 30.6966 53.8664 30.6966 52.274C30.6966 51.4903 30.0612 50.8549 29.2774 50.8549C28.4936 50.8549 27.8583 51.4902 27.8583 52.2739C27.8583 55.4312 30.4269 58 33.5843 58C36.7417 58 39.3103 55.4532 39.3103 52.2959C39.3103 51.2435 39.0249 50.2927 38.5274 49.4299H40.2084C42.3519 49.4299 44.045 47.6423 44.045 45.4988V45.247C44.045 44.3351 44.7724 43.5933 45.6842 43.5933C46.5961 43.5933 47.3234 44.3352 47.3234 45.247V53.634C47.3234 54.3097 46.8135 54.8595 46.1378 54.8595C45.462 54.8595 44.9322 54.3098 44.9322 53.634C44.9322 52.8503 44.3068 52.2149 43.523 52.2149C42.7393 52.2149 42.1089 52.8502 42.1089 53.634C42.1089 55.8748 43.8846 57.6977 46.1253 57.6977C48.366 57.6977 50.1417 55.8748 50.1417 53.634V45.2471C50.1418 42.7702 48.1611 40.7552 45.6842 40.7552Z" fill="white"/>
<path d="M41.042 39.9187C41.4853 40.0253 41.9291 40.0763 42.3663 40.0763C44.9234 40.0763 47.2495 38.3291 47.8731 35.736C48.0564 34.974 47.5872 34.2077 46.8251 34.0244C46.0631 33.8411 45.2969 34.3104 45.1136 35.0725C44.7493 36.5873 43.2206 37.5233 41.7056 37.1592C40.9718 36.9827 40.3505 36.531 39.9564 35.8873C39.5623 35.2437 39.4424 34.485 39.6189 33.7512C39.8022 32.9892 39.3329 32.2229 38.5709 32.0397C37.8088 31.8563 37.0426 32.3256 36.8594 33.0876C36.5056 34.5586 36.7459 36.0792 37.5359 37.3694C38.326 38.6596 39.5711 39.565 41.042 39.9187Z" fill="white"/>
<path d="M45.8037 35.0724C45.9315 34.5413 46.3425 34.1527 46.8378 34.0279C46.8335 34.0267 46.8293 34.0255 46.8251 34.0245C46.063 33.8411 45.2968 34.3104 45.1135 35.0725C44.8308 36.2482 43.8465 37.0748 42.7117 37.2159C44.1178 37.3896 45.4647 36.482 45.8037 35.0724Z" fill="white"/>
<path d="M41.7323 39.9187C40.2613 39.565 39.0162 38.6597 38.2262 37.3694C37.4362 36.0792 37.1959 34.5586 37.5496 33.0876C37.6774 32.5565 38.0883 32.1679 38.5837 32.0431C38.5794 32.0419 38.5752 32.0407 38.571 32.0397C37.8089 31.8563 37.0427 32.3256 36.8594 33.0876C36.5057 34.5586 36.746 36.0792 37.536 37.3694C38.326 38.6596 39.5711 39.565 41.0421 39.9187C41.4854 40.0253 41.9291 40.0763 42.3663 40.0763C42.4794 40.0763 42.5918 40.0717 42.7038 40.0649C42.3815 40.0447 42.0568 39.9967 41.7323 39.9187Z" fill="white"/>
<path d="M42.512 35.2891C43.0773 35.2891 43.5356 34.8308 43.5356 34.2656C43.5356 33.7003 43.0773 33.242 42.512 33.242C41.9467 33.242 41.4885 33.7003 41.4885 34.2656C41.4885 34.8308 41.9467 35.2891 42.512 35.2891Z" fill="white"/>
<path d="M42.064 34.2657C42.064 33.8004 42.3748 33.4082 42.8 33.2839C42.7086 33.2572 42.6123 33.2422 42.5124 33.2422C41.947 33.2422 41.4888 33.7005 41.4888 34.2657C41.4888 34.8311 41.9471 35.2893 42.5124 35.2893C42.6124 35.2893 42.7087 35.2742 42.8 35.2476C42.3748 35.1233 42.064 34.7311 42.064 34.2657Z" fill="white"/>
<path d="M41.9744 45.4989V45.247C41.9744 42.8963 43.759 40.9629 46.0581 40.772C45.9348 40.7617 45.8104 40.7552 45.6843 40.7552C43.2074 40.7552 41.2267 42.7702 41.2267 45.247V45.4989C41.2267 46.0774 40.787 46.6117 40.2085 46.6117H40.9562C41.5347 46.6117 41.9744 46.0774 41.9744 45.4989Z" fill="white"/>
<path d="M46.5107 54.7998C46.6283 54.8383 46.754 54.8596 46.8855 54.8596C47.5612 54.8596 48.0711 54.3099 48.0711 53.6341V45.2471C48.0711 44.3352 47.3437 43.5934 46.4319 43.5934C46.303 43.5934 46.178 43.6087 46.058 43.6367C46.7869 43.807 47.3234 44.4641 47.3234 45.2471V53.6342C47.3235 54.1783 46.9924 54.6403 46.5107 54.7998Z" fill="white"/>
<path d="M33.9582 55.1368C34.0807 55.1528 34.2053 55.1619 34.3321 55.1619C35.9244 55.1619 37.2199 53.8664 37.2199 52.2741C37.2199 50.6818 35.9245 49.3863 34.3321 49.3863C33.5484 49.3863 32.9129 48.7511 32.9129 47.9674C32.9129 47.1837 33.5483 46.5484 34.3321 46.5484C35.7022 46.5484 36.8169 45.434 36.8169 44.0638C36.8169 42.6937 35.7022 41.5795 34.3321 41.5795C34.2051 41.5795 34.0802 41.5892 33.9583 41.6077C35.1517 41.7885 36.0692 42.8208 36.0692 44.0638C36.0692 45.434 34.9545 46.5484 33.5844 46.5484C32.8007 46.5484 32.1652 47.1837 32.1652 47.9674C32.1652 48.7511 32.8005 49.3863 33.5844 49.3863C35.1767 49.3863 36.4721 50.6818 36.4721 52.2742C36.4722 53.7397 35.3745 54.9529 33.9582 55.1368Z" fill="white"/>
<path d="M42.8567 53.6341C42.8567 52.98 43.2959 52.4296 43.8968 52.2653C43.7779 52.2328 43.6527 52.2151 43.5231 52.2151C42.7393 52.2151 42.1089 52.8504 42.1089 53.6342C42.1089 55.8749 43.8847 57.6979 46.1254 57.6979C46.2516 57.6979 46.3761 57.6913 46.4992 57.68C44.4381 57.4902 42.8567 55.7486 42.8567 53.6341Z" fill="white"/>
<path d="M29.6804 45.4863C29.8096 45.4863 29.9346 45.4687 30.0535 45.4363C29.4516 45.2729 29.0091 44.7253 29.0091 44.0713C29.0091 41.2622 31.1963 38.962 33.9572 38.7696C33.834 38.7609 33.7097 38.7562 33.5844 38.7562C30.6492 38.7562 28.2614 41.1361 28.2614 44.0713C28.2614 44.855 28.8967 45.4863 29.6804 45.4863Z" fill="white"/>
<path d="M28.6061 52.2741C28.6061 51.6198 29.049 51.0693 29.6513 50.9051C29.5321 50.8726 29.4069 50.8549 29.2774 50.8549C28.4937 50.8549 27.8584 51.4903 27.8584 52.274C27.8584 55.4313 30.427 58 33.5844 58C33.7103 58 33.8352 57.9955 33.9591 57.9875C30.975 57.7947 28.6061 55.306 28.6061 52.2741Z" fill="white"/>
</g>
<defs>
<clipPath id="clip0_5_172">
<rect width="26" height="26" fill="white" transform="translate(26 32)"/>
</clipPath>
</defs>
</svg>
